<svg width="27" height="25" viewBox="0 0 27 25" fill="none" xmlns="http://www.w3.org/2000/svg">
<path fill-rule="evenodd" clip-rule="evenodd" d="M4.05005 6.50029C4.05005 6.18203 4.19228 5.87681 4.44545 5.65177C4.69863 5.42672 5.04201 5.30029 5.40005 5.30029H21.6C21.9581 5.30029 22.3015 5.42672 22.5546 5.65177C22.8078 5.87681 22.95 6.18203 22.95 6.50029C22.95 6.81855 22.8078 7.12378 22.5546 7.34882C22.3015 7.57387 21.9581 7.70029 21.6 7.70029H5.40005C5.04201 7.70029 4.69863 7.57387 4.44545 7.34882C4.19228 7.12378 4.05005 6.81855 4.05005 6.50029Z" fill="white"/>
<path fill-rule="evenodd" clip-rule="evenodd" d="M4.05005 12.5003C4.05005 12.182 4.19228 11.8768 4.44545 11.6518C4.69863 11.4267 5.04201 11.3003 5.40005 11.3003H21.6C21.9581 11.3003 22.3015 11.4267 22.5546 11.6518C22.8078 11.8768 22.9501 12.182 22.9501 12.5003C22.9501 12.8186 22.8078 13.1238 22.5546 13.3488C22.3015 13.5739 21.9581 13.7003 21.6 13.7003H5.40005C5.04201 13.7003 4.69863 13.5739 4.44545 13.3488C4.19228 13.1238 4.05005 12.8186 4.05005 12.5003Z" fill="white"/>
<path fill-rule="evenodd" clip-rule="evenodd" d="M12.1501 18.5003C12.1501 18.182 12.2924 17.8768 12.5456 17.6518C12.7987 17.4267 13.1421 17.3003 13.5001 17.3003H21.6001C21.9582 17.3003 22.3016 17.4267 22.5547 17.6518C22.8079 17.8768 22.9501 18.182 22.9501 18.5003C22.9501 18.8186 22.8079 19.1238 22.5547 19.3488C22.3016 19.5739 21.9582 19.7003 21.6001 19.7003H13.5001C13.1421 19.7003 12.7987 19.5739 12.5456 19.3488C12.2924 19.1238 12.1501 18.8186 12.1501 18.5003Z" fill="white"/>
</svg>
